<svg xmlns="http://www.w3.org/2000/svg" width="24" height="25" fill="none" viewBox="0 0 24 25"><circle cx="12" cy="12.5" r="9" stroke="#EA7C69" stroke-width="1.8"/><path fill="#EA7C69" d="M10.4585 10.4411C10.4585 9.84702 10.9155 9.47489 11.5358 9.40307V11.4988C11.4705 11.4857 11.4117 11.4661 11.353 11.4465C10.7588 11.2507 10.4585 10.9112 10.4585 10.4411ZM13.7228 14.515C13.7228 15.1548 13.2332 15.5792 12.5412 15.6379V13.3855C12.5869 13.3986 12.6326 13.4116 12.6717 13.4182C13.4029 13.6206 13.7228 13.9796 13.7228 14.515ZM12.5542 17.8772L12.5477 17.0481C14.3365 16.8783 15.4725 15.8925 15.4725 14.3387C15.4725 12.7588 14.4083 12.0929 13.0961 11.8121L12.5412 11.6946V9.41613C13.2332 9.52712 13.6184 10.0494 13.638 10.5717H15.3093C15.2832 9.21374 14.219 8.18222 12.5673 8.00595V7.15723H11.5096V7.99942C9.92971 8.14305 8.68928 9.01136 8.68928 10.5782C8.68928 12.0602 9.75997 12.8175 10.9743 13.0852L11.5358 13.2093V15.6379C10.7001 15.5269 10.2627 15.0242 10.23 14.4236H8.51953C8.53259 15.6314 9.34214 16.9045 11.5031 17.0611L11.4966 17.8772H12.5542Z"/></svg>